<svg width="37" height="37" viewBox="0 0 37 37" fill="none" xmlns="http://www.w3.org/2000/svg">
<g clip-path="url(#clip0_73_3519)">
<path d="M18.4999 0.875C20.9843 0.875 23.3163 1.34375 25.496 2.28125C27.6992 3.21875 29.6152 4.50195 31.2441 6.13086C32.873 7.75977 34.1562 9.67578 35.0937 11.8789C36.0312 14.0586 36.4999 16.3906 36.4999 18.875C36.4999 21.3594 36.0312 23.6914 35.0937 25.8711C34.1562 28.0742 32.873 29.9902 31.2441 31.6191C29.6152 33.248 27.6992 34.5312 25.496 35.4688C23.3163 36.4062 20.9843 36.875 18.4999 36.875C16.0156 36.875 13.6835 36.4062 11.5038 35.4688C9.30072 34.5312 7.3847 33.248 5.7558 31.6191C4.12689 29.9902 2.84369 28.0742 1.90619 25.8711C0.968689 23.6914 0.499939 21.3594 0.499939 18.875C0.499939 16.3906 0.968689 14.0586 1.90619 11.8789C2.84369 9.67578 4.12689 7.75977 5.7558 6.13086C7.3847 4.50195 9.30072 3.21875 11.5038 2.28125C13.6835 1.34375 16.0156 0.875 18.4999 0.875Z" fill="white"/>
</g>
<path d="M22.0117 19.5L15.9999 24V15L22.0117 19.5Z" fill="#005ADC"/>
<defs>
<clipPath id="clip0_73_3519">
<rect width="36" height="36" fill="white" transform="matrix(1 0 0 -1 0.499939 36.875)"/>
</clipPath>
</defs>
</svg>
