<svg width="18" height="18" viewBox="0 0 18 18" fill="none" xmlns="http://www.w3.org/2000/svg">
<path d="M16.3648 8.83773C16.2816 6.82386 15.5415 5.11789 14.1445 3.71983C12.7476 2.32178 11.0429 1.58114 9.03056 1.49792V0C10.228 0.0332871 11.3547 0.287101 12.4108 0.761442C13.4668 1.23578 14.394 1.8724 15.1923 2.67129C15.9906 3.47018 16.6267 4.39806 17.1007 5.45492C17.5747 6.51179 17.8283 7.63939 17.8615 8.83773H16.3648ZM12.1488 8.83773C12.0657 8.00555 11.7331 7.30236 11.151 6.72816C10.5689 6.15395 9.8621 5.82524 9.03056 5.74203V4.24411C10.2779 4.32732 11.3381 4.80166 12.2112 5.66713C13.0843 6.53259 13.5625 7.58946 13.6456 8.83773H12.1488ZM16.8387 18C14.8098 18 12.7933 17.5007 10.7893 16.5021C8.78525 15.5035 6.98496 14.2053 5.3884 12.6075C3.79184 11.0097 2.49463 9.20805 1.49678 7.2025C0.498926 5.19695 0 3.17892 0 1.14841C0 0.832178 0.108101 0.565881 0.324302 0.349515C0.540503 0.133149 0.806597 0.0249654 1.12258 0.0249654H4.61506C4.8479 0.0249654 5.05162 0.104022 5.22625 0.262136C5.40087 0.42025 5.51313 0.632455 5.56302 0.898752L6.23657 4.04438C6.26983 4.27739 6.26568 4.4896 6.2241 4.681C6.18252 4.8724 6.09521 5.03467 5.96216 5.16782L3.46753 7.68932C4.39886 9.23717 5.44245 10.5853 6.59829 11.7337C7.75414 12.8821 9.06382 13.8558 10.5273 14.6546L12.8972 12.208C13.0635 12.025 13.2548 11.896 13.471 11.8211C13.6872 11.7462 13.9034 11.7337 14.1196 11.7836L17.0882 12.4327C17.3377 12.4827 17.5456 12.6075 17.7119 12.8072C17.8782 13.0069 17.9613 13.2399 17.9613 13.5062V16.8766C17.9613 17.1928 17.8532 17.4591 17.637 17.6754C17.4208 17.8918 17.1547 18 16.8387 18ZM2.71915 6.31623L4.73979 4.26907L4.16603 1.52288H1.49678C1.49678 2.17198 1.59656 2.8835 1.79613 3.65742C1.9957 4.43135 2.30337 5.31762 2.71915 6.31623ZM11.9243 15.3786C12.6062 15.6949 13.3463 15.9528 14.1445 16.1526C14.9428 16.3523 15.7162 16.4688 16.4646 16.5021V13.8308L13.8951 13.3065L11.9243 15.3786Z" fill="#252B33"/>
</svg>
