<svg width="166" height="68" viewBox="0 0 166 68" fill="none" xmlns="http://www.w3.org/2000/svg">
<path d="M0 67.9899V11.834H8.98298V17.1771H10.2774C11.2506 15.4496 12.7591 13.9411 14.8078 12.6467C16.8565 11.3523 19.7421 10.7051 23.4648 10.7051C26.7543 10.7051 29.7908 11.5031 32.5694 13.0944C35.348 14.6856 37.5718 17.0214 39.2458 20.092C40.9149 23.1674 41.7568 26.8608 41.7568 31.1771V32.4715C41.7568 36.7879 40.9198 40.4813 39.2458 43.5567C37.5718 46.6322 35.348 48.9679 32.5694 50.5543C29.7908 52.1455 26.7543 52.9436 23.4648 52.9436C20.983 52.9436 18.8808 52.6322 17.1533 52.0142C15.4258 51.3961 14.039 50.6127 12.9879 49.6687C11.9368 48.7246 11.0852 47.766 10.438 46.7976H9.14357V67.9996H0V67.9899ZM20.7981 44.929C24.1947 44.929 27.0171 43.839 29.2555 41.654C31.494 39.4691 32.6132 36.3256 32.6132 32.2282V31.4204C32.6132 27.3231 31.494 24.1796 29.2555 21.9946C27.0171 19.8097 24.1996 18.7197 20.7981 18.7197C17.4015 18.7197 14.5791 19.8146 12.3407 21.9946C10.1022 24.1796 8.98298 27.3231 8.98298 31.4204V32.2282C8.98298 36.3304 10.1022 39.4691 12.3407 41.654C14.5791 43.8341 17.3966 44.929 20.7981 44.929Z" fill="#005ADC"/>
<path d="M41.7568 51.8049V11.834H50.9003V51.8097H41.7568V51.8049Z" fill="#005ADC"/>
<path d="M50.91 51.8053L65.8005 31.6544L51.1533 11.8296H61.8346L71.7081 25.7469H73.0852L82.9587 11.8296H93.64L78.9149 31.6544L93.8833 51.8053H83.0414L73.0901 37.6447H71.7129L61.7616 51.8053H50.91Z" fill="#005ADC"/>
<path d="M93.8784 51.8055V0H103.022V51.8055H93.8784Z" fill="#005ADC"/>
<path d="M123.013 52.9392C119.017 52.9392 115.499 52.0876 112.453 50.3893C109.407 48.691 107.042 46.2919 105.373 43.1873C103.699 40.0876 102.862 36.4574 102.862 32.3017V31.3284C102.862 27.1727 103.699 23.5474 105.373 20.4428C107.042 17.343 109.377 14.9391 112.37 13.2408C115.363 11.5425 118.828 10.6909 122.769 10.6909C126.652 10.6909 130.054 11.5425 132.964 13.2408C135.879 14.9391 138.142 17.3284 139.762 20.4038C141.382 23.4793 142.19 27.0413 142.19 31.0851V34.4038H112.088C112.195 37.5863 113.314 40.1362 115.446 42.0486C117.577 43.9659 120.18 44.9197 123.256 44.9197C126.278 44.9197 128.526 44.2579 130.01 42.9391C131.494 41.6155 132.638 40.1216 133.45 38.4477L140.974 42.3309C140.219 43.7859 139.124 45.3382 137.699 46.9829C136.268 48.6277 134.38 50.0292 132.034 51.1922C129.689 52.3601 126.677 52.9392 123.013 52.9392ZM112.166 27.5328H132.881C132.667 24.7834 131.64 22.6228 129.806 21.0608C127.971 19.4987 125.596 18.7153 122.686 18.7153C119.718 18.7153 117.334 19.4987 115.523 21.0608C113.718 22.6228 112.599 24.7785 112.166 27.5328Z" fill="#005ADC"/>
<path d="M142.19 51.8058V11.8349H151.173V16.448H152.467C153.115 14.7789 154.136 13.5624 155.543 12.8081C156.944 12.0539 158.643 11.6743 160.643 11.6743H165.416V19.8495H160.399C157.703 19.8495 155.518 20.5648 153.844 21.9955C152.17 23.4262 151.338 25.65 151.338 28.6719V51.8155H142.19V51.8058Z" fill="#005ADC"/>
<path d="M41.7564 0H29.9219V11.8346H41.7564V0Z" fill="#FFA037"/>
</svg>
