<svg width="17" height="16" viewBox="0 0 17 16" fill="none" xmlns="http://www.w3.org/2000/svg">
<path d="M11.7895 5.05225C13.1295 5.05225 14.4147 5.58458 15.3622 6.53213C16.3098 7.47968 16.8421 8.76484 16.8421 10.1049V15.9996H13.4737V10.1049C13.4737 9.6582 13.2962 9.22981 12.9804 8.91396C12.6645 8.59811 12.2362 8.42067 11.7895 8.42067C11.3428 8.42067 10.9144 8.59811 10.5986 8.91396C10.2827 9.22981 10.1053 9.6582 10.1053 10.1049V15.9996H6.73685V10.1049C6.73685 8.76484 7.26918 7.47968 8.21673 6.53213C9.16428 5.58458 10.4494 5.05225 11.7895 5.05225Z" fill="#252B33"/>
<path d="M3.36842 5.89502H0V16.0003H3.36842V5.89502Z" fill="#252B33"/>
<path d="M1.68421 3.36842C2.61437 3.36842 3.36842 2.61437 3.36842 1.68421C3.36842 0.754047 2.61437 0 1.68421 0C0.754047 0 0 0.754047 0 1.68421C0 2.61437 0.754047 3.36842 1.68421 3.36842Z" fill="#252B33"/>
</svg>
