<svg width="137" height="56" viewBox="0 0 137 56" fill="none" xmlns="http://www.w3.org/2000/svg">
<path d="M0 55.992V9.74613H7.39774V14.1463H8.46372C9.26521 12.7237 10.5075 11.4814 12.1946 10.4154C13.8818 9.3494 16.2582 8.81641 19.3239 8.81641C22.0329 8.81641 24.5336 9.47363 26.8218 10.7841C29.1101 12.0945 30.9415 14.0181 32.32 16.5468C33.6946 19.0795 34.3879 22.1211 34.3879 25.6757V26.7417C34.3879 30.2963 33.6986 33.3379 32.32 35.8706C30.9415 38.4033 29.1101 40.3269 26.8218 41.6333C24.5336 42.9438 22.0329 43.601 19.3239 43.601C17.2801 43.601 15.5489 43.3445 14.1262 42.8356C12.7036 42.3266 11.5615 41.6814 10.6959 40.904C9.83026 40.1265 9.12895 39.3371 8.59596 38.5396H7.52998V56H0V55.992ZM17.1278 37.0007C19.925 37.0007 22.2493 36.1031 24.0927 34.3037C25.9362 32.5044 26.8579 29.9156 26.8579 26.5413V25.8761C26.8579 22.5018 25.9362 19.913 24.0927 18.1137C22.2493 16.3143 19.929 15.4167 17.1278 15.4167C14.3306 15.4167 12.0063 16.3183 10.1629 18.1137C8.31945 19.913 7.39774 22.5018 7.39774 25.8761V26.5413C7.39774 29.9196 8.31945 32.5044 10.1629 34.3037C12.0063 36.0991 14.3266 37.0007 17.1278 37.0007Z" fill="#005ADC"/>
<path d="M34.3879 42.6633V9.74615H41.9179V42.6673H34.3879V42.6633Z" fill="#005ADC"/>
<path d="M41.9258 42.6631L54.1886 26.0683L42.1262 9.74194H50.9225L59.0536 21.2032H60.1877L68.3188 9.74194H77.1151L64.9886 26.0683L77.3155 42.6631H68.3869L60.1917 31.0014H59.0576L50.8624 42.6631H41.9258Z" fill="#005ADC"/>
<path d="M77.3115 42.6632V0H84.8415V42.6632H77.3115Z" fill="#005ADC"/>
<path d="M101.304 43.597C98.0142 43.597 95.1168 42.8957 92.6081 41.4971C90.0995 40.0985 88.1519 38.1228 86.7773 35.5661C85.3987 33.0133 84.7095 30.0238 84.7095 26.6014V25.7999C84.7095 22.3776 85.3987 19.392 86.7773 16.8353C88.1519 14.2826 90.0754 12.3029 92.54 10.9043C95.0046 9.50568 97.8579 8.80438 101.104 8.80438C104.302 8.80438 107.103 9.50568 109.5 10.9043C111.9 12.3029 113.763 14.2705 115.098 16.8032C116.432 19.3359 117.098 22.2694 117.098 25.5996V28.3326H92.3076C92.3957 30.9535 93.3175 33.0534 95.0727 34.6283C96.828 36.2073 98.972 36.9927 101.505 36.9927C103.993 36.9927 105.845 36.4477 107.067 35.3617C108.289 34.2717 109.231 33.0414 109.9 31.6628L116.096 34.8608C115.475 36.059 114.573 37.3374 113.399 38.6919C112.221 40.0464 110.666 41.2005 108.734 42.1583C106.802 43.1201 104.322 43.597 101.304 43.597ZM92.3717 22.6741H109.431C109.255 20.4099 108.409 18.6306 106.899 17.3442C105.388 16.0579 103.432 15.4127 101.036 15.4127C98.5912 15.4127 96.6276 16.0579 95.1368 17.3442C93.6501 18.6306 92.7284 20.4059 92.3717 22.6741Z" fill="#005ADC"/>
<path d="M117.097 42.6634V9.74626H124.495V13.5453H125.561C126.094 12.1708 126.936 11.1689 128.094 10.5477C129.248 9.92659 130.647 9.61401 132.294 9.61401H136.225V16.3465H132.093C129.873 16.3465 128.074 16.9356 126.695 18.1138C125.317 19.292 124.631 21.1234 124.631 23.612V42.6714H117.097V42.6634Z" fill="#005ADC"/>
<path d="M34.3876 0H24.6415V9.7461H34.3876V0Z" fill="#FFAE37"/>
</svg>
