<svg width="73" height="76" viewBox="0 0 73 76" fill="none" xmlns="http://www.w3.org/2000/svg">
<circle cx="36" cy="55" r="11" fill="#FFBD74"/>
<path d="M36.7332 7.59998H29.1332C28.7972 7.59998 28.475 7.46653 28.2375 7.22899C28 6.99144 27.8665 6.66926 27.8665 6.33332C27.8665 5.99738 28 5.67519 28.2375 5.43765C28.475 5.2001 28.7972 5.06665 29.1332 5.06665H36.7332C37.0691 5.06665 37.3913 5.2001 37.6288 5.43765C37.8664 5.67519 37.9998 5.99738 37.9998 6.33332C37.9998 6.66926 37.8664 6.99144 37.6288 7.22899C37.3913 7.46653 37.0691 7.59998 36.7332 7.59998ZM46.8665 76H18.9998C17.3208 75.998 15.711 75.3301 14.5237 74.1428C13.3364 72.9555 12.6685 71.3457 12.6665 69.6666V51.9333C12.6665 51.5974 12.8 51.2752 13.0375 51.0376C13.275 50.8001 13.5972 50.6666 13.9332 50.6666C14.2691 50.6666 14.5913 50.8001 14.8288 51.0376C15.0664 51.2752 15.1998 51.5974 15.1998 51.9333V69.6666C15.1998 71.7617 16.9048 73.4667 18.9998 73.4667H46.8665C48.9616 73.4667 50.6665 71.7617 50.6665 69.6666V26.6C50.6665 26.264 50.8 25.9419 51.0375 25.7043C51.2751 25.4668 51.5972 25.3333 51.9332 25.3333C52.2691 25.3333 52.5913 25.4668 52.8288 25.7043C53.0664 25.9419 53.1998 26.264 53.1998 26.6V69.6666C53.1998 73.1576 50.36 76 46.8665 76Z" fill="#252B33"/>
<path d="M51.9336 10.1333C51.5976 10.1333 51.2754 9.99988 51.0379 9.76233C50.8003 9.52479 50.6669 9.20261 50.6669 8.86667V6.33333C50.6669 4.23827 48.962 2.53333 46.8669 2.53333H19.0002C16.9052 2.53333 15.2002 4.23827 15.2002 6.33333V8.86667C15.2002 9.20261 15.0668 9.52479 14.8292 9.76233C14.5917 9.99988 14.2695 10.1333 13.9336 10.1333C13.5976 10.1333 13.2754 9.99988 13.0379 9.76233C12.8003 9.52479 12.6669 9.20261 12.6669 8.86667V6.33333C12.6669 2.8424 15.5068 0 19.0002 0H46.8669C50.3604 0 53.2002 2.8424 53.2002 6.33333V8.86667C53.2002 9.20261 53.0668 9.52479 52.8292 9.76233C52.5917 9.99988 52.2695 10.1333 51.9336 10.1333ZM31.6669 60.8H21.5336C21.1976 60.8 20.8754 60.6665 20.6379 60.429C20.4003 60.1915 20.2669 59.8693 20.2669 59.5333C20.2669 59.1974 20.4003 58.8752 20.6379 58.6377C20.8754 58.4001 21.1976 58.2667 21.5336 58.2667H31.6669C32.0028 58.2667 32.325 58.4001 32.5626 58.6377C32.8001 58.8752 32.9336 59.1974 32.9336 59.5333C32.9336 59.8693 32.8001 60.1915 32.5626 60.429C32.325 60.6665 32.0028 60.8 31.6669 60.8ZM39.2669 65.8667H21.5336C21.1976 65.8667 20.8754 65.7332 20.6379 65.4957C20.4003 65.2581 20.2669 64.9359 20.2669 64.6C20.2669 64.2641 20.4003 63.9419 20.6379 63.7043C20.8754 63.4668 21.1976 63.3333 21.5336 63.3333H39.2669C39.6028 63.3333 39.925 63.4668 40.1626 63.7043C40.4001 63.9419 40.5336 64.2641 40.5336 64.6C40.5336 64.9359 40.4001 65.2581 40.1626 65.4957C39.925 65.7332 39.6028 65.8667 39.2669 65.8667ZM44.3336 55.7333H21.5336C21.1976 55.7333 20.8754 55.5999 20.6379 55.3623C20.4003 55.1248 20.2669 54.8026 20.2669 54.4667C20.2669 54.1307 20.4003 53.8085 20.6379 53.571C20.8754 53.3335 21.1976 53.2 21.5336 53.2H44.3336C44.6695 53.2 44.9917 53.3335 45.2292 53.571C45.4668 53.8085 45.6002 54.1307 45.6002 54.4667C45.6002 54.8026 45.4668 55.1248 45.2292 55.3623C44.9917 55.5999 44.6695 55.7333 44.3336 55.7333ZM17.7336 32.9333C14.2401 32.9333 11.4002 30.0909 11.4002 26.6C11.4002 23.1091 14.2401 20.2667 17.7336 20.2667C21.227 20.2667 24.0669 23.1091 24.0669 26.6C24.0669 30.0909 21.227 32.9333 17.7336 32.9333ZM17.7336 22.8C15.6385 22.8 13.9336 24.5049 13.9336 26.6C13.9336 28.6951 15.6385 30.4 17.7336 30.4C19.8286 30.4 21.5336 28.6951 21.5336 26.6C21.5336 24.5049 19.8286 22.8 17.7336 22.8ZM17.7336 48.1333C13.2805 48.1287 8.99321 46.4442 5.72809 43.4163C5.56175 43.2625 5.43969 43.0669 5.37464 42.8499C5.30959 42.6329 5.30392 42.4025 5.35822 42.1825C5.8275 40.2637 6.92817 38.5582 8.4834 37.3402C10.0386 36.1222 11.9581 35.4624 13.9336 35.4667H21.5336C23.5087 35.463 25.4279 36.1228 26.9833 37.3401C28.5388 38.5574 29.6403 40.2618 30.1114 42.18C30.1657 42.3999 30.1601 42.6304 30.095 42.8474C30.03 43.0644 29.9079 43.2599 29.7416 43.4137C26.4762 46.4432 22.1878 48.1287 17.7336 48.1333ZM8.03849 42.0711C13.5156 46.6336 21.9516 46.6336 27.4286 42.0711C26.9779 40.8726 26.1718 39.8405 25.1182 39.1129C24.0647 38.3853 22.8139 37.997 21.5336 38H13.9336C12.6532 37.997 11.4025 38.3853 10.3489 39.1129C9.29532 39.8405 8.4892 40.8726 8.03849 42.0711Z" fill="#252B33"/>
<path d="M17.7333 48.1334C7.9572 48.1334 0 40.1787 0 30.4001C0 20.6214 7.9572 12.6667 17.7333 12.6667C27.5095 12.6667 35.4667 20.6214 35.4667 30.4001C35.4667 40.1787 27.5095 48.1334 17.7333 48.1334ZM17.7333 15.2001C9.35053 15.2001 2.53333 22.0173 2.53333 30.4001C2.53333 38.7829 9.35053 45.6001 17.7333 45.6001C26.1161 45.6001 32.9333 38.7829 32.9333 30.4001C32.9333 22.0173 26.1161 15.2001 17.7333 15.2001ZM6.33333 55.6068C5.63413 55.6068 5.06667 55.1659 5.06667 54.4667V54.2134C5.06667 53.8775 5.20012 53.5553 5.43767 53.3177C5.67521 53.0802 5.99739 52.9467 6.33333 52.9467C6.66927 52.9467 6.99146 53.0802 7.229 53.3177C7.46655 53.5553 7.6 53.8775 7.6 54.2134C7.6 54.9126 7.03253 55.6068 6.33333 55.6068ZM6.33333 60.6734C5.63413 60.6734 5.06667 60.2326 5.06667 59.5334V59.2801C5.06667 58.9441 5.20012 58.622 5.43767 58.3844C5.67521 58.1469 5.99739 58.0134 6.33333 58.0134C6.66927 58.0134 6.99146 58.1469 7.229 58.3844C7.46655 58.622 7.6 58.9441 7.6 59.2801C7.6 59.9793 7.03253 60.6734 6.33333 60.6734ZM6.33333 65.7401C5.63413 65.7401 5.06667 65.2993 5.06667 64.6001V64.3467C5.06667 64.0108 5.20012 63.6886 5.43767 63.4511C5.67521 63.2135 5.99739 63.0801 6.33333 63.0801C6.66927 63.0801 6.99146 63.2135 7.229 63.4511C7.46655 63.6886 7.6 64.0108 7.6 64.3467C7.6 65.0459 7.03253 65.7401 6.33333 65.7401ZM56.5947 65.8667H54.4667C54.1307 65.8667 53.8085 65.7333 53.571 65.4958C53.3335 65.2582 53.2 64.936 53.2 64.6001C53.2 64.2641 53.3335 63.942 53.571 63.7044C53.8085 63.4669 54.1307 63.3334 54.4667 63.3334H55.5737L56.1944 60.4581C56.2443 60.2253 56.359 60.0114 56.5253 59.841C56.6916 59.6707 56.9027 59.5508 57.1343 59.4954C58.3566 59.1957 59.525 58.7077 60.5973 58.0489C60.7996 57.9255 61.0323 57.8612 61.2692 57.8635C61.5061 57.8657 61.7376 57.9343 61.9375 58.0616L64.4455 59.6651L65.9984 58.0995L64.3948 55.6118C64.2661 55.4118 64.1962 55.1796 64.193 54.9418C64.1899 54.7039 64.2537 54.47 64.3771 54.2666C65.0361 53.1947 65.5234 52.0262 65.8211 50.8036C65.8768 50.5727 65.996 50.3621 66.1653 50.1956C66.3345 50.029 66.547 49.9132 66.7787 49.8611L69.6641 49.2202V47.0491L66.7787 46.4082C66.547 46.3562 66.3345 46.2403 66.1653 46.0738C65.996 45.9072 65.8768 45.6966 65.8211 45.4658C65.5223 44.2436 65.0351 43.0752 64.3771 42.0027C64.2527 41.8003 64.1881 41.5668 64.1908 41.3292C64.1934 41.0916 64.2633 40.8596 64.3923 40.6601L65.9984 38.1495L64.448 36.5991L61.9375 38.2053C61.7378 38.3331 61.5062 38.402 61.2692 38.4043C61.0322 38.4065 60.7994 38.3419 60.5973 38.2179C59.5245 37.56 58.3563 37.0721 57.1343 36.7714C56.9027 36.716 56.6916 36.5962 56.5253 36.4258C56.359 36.2555 56.2443 36.0415 56.1944 35.8087L55.5737 32.9334H54.4667C54.1307 32.9334 53.8085 32.8 53.571 32.5624C53.3335 32.3249 53.2 32.0027 53.2 31.6667C53.2 31.3308 53.3335 31.0086 53.571 30.7711C53.8085 30.5335 54.1307 30.4001 54.4667 30.4001H56.5947C56.884 30.4006 57.1645 30.5001 57.3894 30.6822C57.6144 30.8642 57.7702 31.1178 57.8309 31.4007L58.5073 34.5243C59.4345 34.8055 60.344 35.1855 61.2205 35.6593L63.9413 33.9189C64.1846 33.7634 64.4738 33.6957 64.7608 33.7271C65.0479 33.7584 65.3156 33.8868 65.5196 34.0911L68.5115 37.0805C68.7154 37.2848 68.8434 37.5527 68.8742 37.8397C68.9051 38.1268 68.837 38.4157 68.6812 38.6587L66.9408 41.3795C67.4145 42.2586 67.7945 43.1681 68.0757 44.0978L71.2044 44.7919C71.4859 44.8542 71.7378 45.0107 71.9183 45.2355C72.0989 45.4602 72.1974 45.7399 72.1975 46.0282V50.2335C72.1974 50.5219 72.0989 50.8015 71.9183 51.0263C71.7378 51.2511 71.4859 51.4075 71.2044 51.4698L68.0757 52.1639C67.7898 53.1051 67.4096 54.0149 66.9408 54.8797L68.6787 57.5751C68.836 57.8173 68.9055 58.1062 68.8755 58.3934C68.8456 58.6807 68.718 58.9489 68.514 59.1534L65.5221 62.1681C65.3182 62.3734 65.0502 62.5027 64.7626 62.5345C64.475 62.5663 64.1852 62.4987 63.9413 62.3429L61.2205 60.6025C60.3563 61.0704 59.4473 61.4506 58.5073 61.7374L57.8309 64.861C57.7712 65.1449 57.6158 65.3996 57.3908 65.5827C57.1658 65.7657 56.8847 65.866 56.5947 65.8667Z" fill="#252B33"/>
<path d="M57.1341 55.1457C56.846 55.1453 56.5667 55.0467 56.3421 54.8663C56.1176 54.6858 55.9613 54.4341 55.899 54.1528C55.8368 53.8716 55.8722 53.5774 55.9996 53.319C56.1269 53.0606 56.3386 52.8534 56.5996 52.7314C57.4743 52.3221 58.2145 51.6724 58.7339 50.8583C59.2534 50.0442 59.5306 49.0991 59.5332 48.1334C59.532 47.2979 59.3244 46.4757 58.9289 45.7397C58.5333 45.0038 57.9621 44.377 57.266 43.915C56.5698 43.453 55.7704 43.1701 54.9386 43.0915C54.1068 43.0129 53.2685 43.1411 52.4981 43.4645C52.3439 43.537 52.1766 43.5777 52.0062 43.5841C51.8359 43.5904 51.666 43.5623 51.5067 43.5015C51.3475 43.4406 51.2022 43.3482 51.0795 43.2299C50.9568 43.1115 50.8593 42.9696 50.7928 42.8127C50.7262 42.6557 50.6921 42.4869 50.6923 42.3165C50.6925 42.146 50.7272 41.9773 50.7942 41.8206C50.8612 41.6638 50.9591 41.5222 51.0821 41.4042C51.2051 41.2862 51.3507 41.1942 51.5101 41.1338C52.6656 40.6486 53.9229 40.4563 55.1706 40.5739C56.4182 40.6915 57.6175 41.1154 58.6619 41.8079C59.7064 42.5005 60.5636 43.4402 61.1576 44.5437C61.7515 45.6472 62.0637 46.8802 62.0665 48.1334C62.0633 49.5813 61.648 50.9984 60.8693 52.2191C60.0905 53.4397 58.9804 54.4135 57.6687 55.0266C57.5014 55.105 57.3189 55.1456 57.1341 55.1457ZM60.7999 22.8001H45.5999C42.8056 22.8001 40.5332 20.5277 40.5332 17.7334C40.5332 14.9391 42.8056 12.6667 45.5999 12.6667H60.7999C63.5941 12.6667 65.8665 14.9391 65.8665 17.7334C65.8665 20.5277 63.5941 22.8001 60.7999 22.8001ZM45.5999 15.2001C44.9476 15.2293 44.3317 15.5089 43.8804 15.9808C43.4292 16.4527 43.1773 17.0805 43.1773 17.7334C43.1773 18.3863 43.4292 19.0141 43.8804 19.486C44.3317 19.9579 44.9476 20.2376 45.5999 20.2667H60.7999C61.4522 20.2376 62.068 19.9579 62.5193 19.486C62.9706 19.0141 63.2224 18.3863 63.2224 17.7334C63.2224 17.0805 62.9706 16.4527 62.5193 15.9808C62.068 15.5089 61.4522 15.2293 60.7999 15.2001H45.5999Z" fill="#252B33"/>
</svg>
