<svg width="72" height="76" viewBox="0 0 72 76" fill="none" xmlns="http://www.w3.org/2000/svg">
<circle cx="47" cy="52" r="11" fill="#80F199"/>
<path d="M66.4477 45.2782H55.0712V35.9667H58.4664C59.1632 35.9667 59.7333 35.3966 59.7333 34.6998V25.4516C59.7333 25.2742 59.6953 25.0968 59.6193 24.9322L51.1439 6.28371C51.0442 6.06125 50.8824 5.87233 50.6778 5.73972C50.4733 5.60711 50.2348 5.53645 49.991 5.53626H43.3399V1.26688C43.3399 0.570095 42.7698 0 42.073 0H17.6729C16.9762 0 16.4061 0.570095 16.4061 1.26688V5.53626H9.75496C9.26088 5.53626 8.8048 5.82764 8.6021 6.28371L0.114019 24.9322C0.0380062 25.0968 0 25.2742 0 25.4516V34.6998C0 35.3966 0.570095 35.9667 1.26688 35.9667H4.66211V62.5584C4.66211 63.2552 5.23221 63.8253 5.92899 63.8253H35.802V65.4849C35.802 68.4114 38.1964 70.7931 41.1355 70.7931H48.6734L52.8415 75.5693C53.0822 75.848 53.4242 76 53.7916 76C54.159 76 54.5011 75.848 54.7418 75.5693L58.9098 70.7931H66.4477C69.3869 70.7931 71.7813 68.4114 71.7813 65.4849V50.5738C71.7813 47.6473 69.3869 45.2655 66.4477 45.2655V45.2782ZM18.9398 2.53376H40.8061V11.0472H18.9398V2.53376ZM2.53376 25.7303L10.5658 8.07001H16.3934V12.3267C16.3934 13.0235 16.9635 13.5936 17.6603 13.5936H42.0603C42.7571 13.5936 43.3272 13.0235 43.3272 12.3267V8.07001H49.1549L57.1869 25.7303V33.4329H2.53376V25.7303ZM16.0133 61.2915V44.5561H26.9845V61.2915H16.0133ZM29.5183 61.2915V43.2892C29.5183 42.5924 28.9482 42.0223 28.2514 42.0223H14.7465C14.0497 42.0223 13.4796 42.5924 13.4796 43.2892V61.2915H7.19587V35.9667H52.5247V45.2782H41.1355C38.1964 45.2782 35.802 47.6599 35.802 50.5864V61.2915H29.5183ZM69.2349 65.4849C69.2332 65.8509 69.1595 66.213 69.0179 66.5505C68.8763 66.8881 68.6696 67.1944 68.4096 67.452C68.1496 67.7096 67.8414 67.9135 67.5026 68.0521C67.1638 68.1906 66.8011 68.261 66.4351 68.2594H58.3271C58.1469 68.2579 57.9686 68.2957 57.8045 68.3701C57.6405 68.4445 57.4945 68.5537 57.3769 68.6901L53.7916 72.8075L50.2064 68.6901C50.0887 68.5537 49.9428 68.4445 49.7787 68.3701C49.6146 68.2957 49.4363 68.2579 49.2562 68.2594H41.1482C40.7822 68.261 40.4194 68.1906 40.0806 68.0521C39.7418 67.9135 39.4337 67.7096 39.1737 67.452C38.9137 67.1944 38.707 66.8881 38.5654 66.5505C38.4238 66.213 38.35 65.8509 38.3484 65.4849V50.5738C38.35 50.2077 38.4238 49.8456 38.5654 49.5081C38.707 49.1706 38.9137 48.8643 39.1737 48.6067C39.4337 48.349 39.7418 48.1451 40.0806 48.0066C40.4194 47.8681 40.7822 47.7976 41.1482 47.7993H66.4477C66.8138 47.7976 67.1765 47.8681 67.5153 48.0066C67.8541 48.1451 68.1623 48.349 68.4223 48.6067C68.6822 48.8643 68.8889 49.1706 69.0305 49.5081C69.1721 49.8456 69.2459 50.2077 69.2475 50.5738V65.4849H69.2349Z" fill="#252B33"/>
<path d="M61.9631 53.3354H45.6331C44.9363 53.3354 44.3662 53.9055 44.3662 54.6023C44.3662 55.2991 44.9363 55.8692 45.6331 55.8692H61.9631C62.6599 55.8692 63.23 55.2991 63.23 54.6023C63.23 53.9055 62.6599 53.3354 61.9631 53.3354ZM61.9631 60.2146H45.6331C44.9363 60.2146 44.3662 60.7847 44.3662 61.4815C44.3662 62.1783 44.9363 62.7484 45.6331 62.7484H61.9631C62.6599 62.7484 63.23 62.1783 63.23 61.4815C63.23 60.7847 62.6599 60.2146 61.9631 60.2146Z" fill="#252B33"/>
</svg>
