<svg width="72" height="76" viewBox="0 0 72 76" fill="none" xmlns="http://www.w3.org/2000/svg">
<circle cx="36" cy="45" r="11" fill="#80F6FE"/>
<path d="M35.5818 39.8753C38.6251 39.8753 41.1091 42.3429 41.1091 45.4026C41.1091 48.4459 38.6251 50.9299 35.5818 50.9299C32.5385 50.9299 30.0545 48.4459 30.0545 45.4026C30.071 42.3429 32.5385 39.8753 35.5818 39.8753ZM38.0987 42.8857C35.8779 40.6649 32.045 42.2442 32.045 45.3861C32.045 48.5281 35.8779 50.1238 38.0987 47.903C39.4805 46.5212 39.4805 44.2675 38.0987 42.8857ZM22.9645 44.3991C23.1619 43.3792 24.0502 42.6061 25.1195 42.6061C25.6294 42.6061 25.3662 42.6225 25.8762 41.3558C26.3697 40.155 26.5835 40.303 26.2216 39.9411C25.3662 39.0857 25.3662 37.7039 26.2216 36.832C26.9784 36.0753 27.4883 35.368 28.5905 35.368C29.2978 35.368 29.7584 35.6476 30.2519 36.1247C30.3342 36.2069 30.4164 36.2234 30.5152 36.174C31.1732 35.8121 31.897 35.4996 32.6537 35.2857C32.8346 35.2364 32.8017 35.0719 32.8017 34.9074C32.8017 33.8381 33.5584 32.9498 34.5948 32.7524V28.8372H18.9013C19.0329 29.3636 19.0987 29.9065 19.0987 30.4658V33.213C19.0987 33.7558 18.6545 34.2 18.1117 34.2H9.57403V61.9022H61.6061V34.2164H53.0848C52.542 34.2164 52.0978 33.7723 52.0978 33.2294V30.4823C52.0978 29.9229 52.1636 29.3801 52.2952 28.8537H36.5688V32.7688C37.5887 32.9662 38.3619 33.8545 38.3619 34.9238C38.3619 35.4338 38.3619 35.1706 39.6121 35.6805C40.813 36.174 40.6649 36.3879 41.0268 36.026C41.8823 35.1706 43.2805 35.1706 44.1359 36.026C44.8926 36.7827 45.6 37.2926 45.6 38.3948C45.6 39.7931 44.5965 39.9576 44.8104 40.3195C45.1887 40.9939 45.4684 41.7013 45.6987 42.458C45.748 42.639 45.9125 42.6061 46.077 42.6061C47.1463 42.6061 48.0346 43.3628 48.232 44.3991H55.8814V36.0589C55.8814 35.516 56.3255 35.0719 56.8684 35.0719C57.4113 35.0719 57.8554 35.516 57.8554 36.0589V45.3861C57.8554 45.929 57.4113 46.3732 56.8684 46.3732H48.232C48.0346 47.3931 47.1463 48.1662 46.077 48.1662C45.5671 48.1662 45.8303 48.1662 45.3203 49.4164C44.8268 50.6173 44.613 50.4693 44.9749 50.8476C45.8303 51.703 45.8303 53.1013 44.9749 53.9567C44.2182 54.7134 43.7082 55.4208 42.6061 55.4208C41.8987 55.4208 41.4216 55.1411 40.9446 54.6641C40.8623 54.5818 40.7801 54.5818 40.6814 54.6312C40.0069 55.0095 39.316 55.2892 38.5429 55.5195C38.3619 55.5688 38.3948 55.7333 38.3948 55.8978C38.3948 57.1151 37.4078 58.1022 36.2069 58.1022C35.1377 58.1022 34.2822 58.2338 33.4926 57.4606C32.5056 56.4736 33.0978 55.6511 32.703 55.5359L31.6173 55.1576C30.4164 54.6641 30.5645 54.4502 30.2026 54.8121C29.3472 55.6675 27.9654 55.6675 27.0935 54.8121C26.3368 54.0554 25.6294 53.5455 25.6294 52.4433C25.6294 51.7359 25.9091 51.2589 26.3861 50.7818C26.4684 50.6996 26.4848 50.6173 26.4355 50.5186C26.2545 50.1896 26.09 49.8442 25.942 49.4822C25.432 48.2649 25.7117 48.232 25.1853 48.232C24.116 48.232 23.2277 47.4753 23.0303 46.439H14.3939C13.8511 46.439 13.4069 45.9948 13.4069 45.4519V36.1247C13.4069 35.5818 13.8511 35.1377 14.3939 35.1377C14.9368 35.1377 15.381 35.5818 15.381 36.1247V44.4649H22.9645V44.3991ZM24.9056 44.8104V45.9619C24.9056 46.4225 25.6459 45.8961 26.6 46.6199C27.3403 47.1792 27.3403 47.7879 27.7022 48.6433C28.0641 49.4823 28.4918 49.9429 28.3602 50.8476C28.2944 51.3082 28.0805 51.7524 27.7351 52.0978C27.6364 52.1965 27.4554 52.361 27.6199 52.5255L28.4424 53.348C28.5247 53.4303 28.6727 53.4303 28.755 53.348C29.1662 52.9368 29.5117 52.69 30.1203 52.6078C31.0416 52.4762 31.4857 52.9203 32.3247 53.2658C33.1636 53.6113 33.7887 53.6113 34.3481 54.368C35.0719 55.3385 34.5455 56.0623 35.0061 56.0623H36.1576C36.6182 56.0623 36.0918 55.3221 36.8156 54.368C37.3749 53.6277 37.9835 53.6277 38.839 53.2658C39.6779 52.9203 40.1221 52.4762 41.0433 52.6078C41.5039 52.6736 41.948 52.8874 42.2935 53.2329C42.3922 53.3316 42.5567 53.5126 42.7212 53.348L43.5437 52.5255C43.626 52.4433 43.626 52.2952 43.5437 52.213C43.1325 51.8017 42.8857 51.4563 42.8035 50.8476C42.6719 49.9264 43.116 49.4823 43.4615 48.6433C43.8069 47.7879 43.8234 47.1792 44.5636 46.6199C45.5342 45.8961 46.258 46.4225 46.258 45.9619V44.8104C46.258 44.3498 45.5177 44.8762 44.5636 44.1524C43.8234 43.5931 43.8234 42.968 43.4615 42.129C43.116 41.29 42.6719 40.8459 42.8035 39.9247C42.968 38.7238 43.8727 38.5758 43.5437 38.2632L42.7212 37.4407C42.639 37.3584 42.4909 37.3584 42.4087 37.4407C41.9974 37.8519 41.652 38.0987 41.0433 38.181C40.1221 38.3126 39.6779 37.8684 38.839 37.5229C37.9835 37.161 37.3749 37.161 36.8156 36.4208C36.0918 35.4502 36.6182 34.7264 36.1576 34.7264H35.0061C34.5455 34.7264 35.0719 35.4667 34.3481 36.4208C33.7887 37.161 33.1636 37.161 32.3082 37.5229C31.4857 37.8684 31.0251 38.3126 30.1039 38.181C29.6433 38.1152 29.2156 37.9013 28.8537 37.5558C28.755 37.4571 28.5905 37.2762 28.426 37.4407L27.6035 38.2632C27.5212 38.3455 27.5212 38.4935 27.6035 38.5758C28.0147 38.987 28.2615 39.3325 28.3437 39.9411C28.4753 40.8623 28.0312 41.3065 27.6857 42.1455C27.3238 43.0009 27.3238 43.6095 26.5835 44.1688C25.6459 44.8762 24.9056 44.3498 24.9056 44.8104ZM34.5948 21.2372C34.5948 20.6944 35.039 20.2502 35.5818 20.2502C36.1247 20.2502 36.5688 20.6944 36.5688 21.2372V26.8797H53.0684C54.0883 25.1524 55.8156 23.9022 57.8225 23.4909C55.8814 21.4346 55.9307 18.2104 57.9377 16.2035C59.9775 14.1636 63.3004 14.1636 65.3403 16.2035C67.3472 18.2104 67.3965 21.4346 65.4554 23.4909C68.7455 24.1489 71.1801 27.0771 71.1801 30.4823V33.2294C71.1801 33.7723 70.7359 34.2164 70.1931 34.2164H63.5965V62.9056C63.5965 63.4485 63.1524 63.8926 62.6095 63.8926H42.6883C43.2641 64.5671 43.955 65.2087 44.7281 65.8173C46.0277 66.8372 47.5905 67.7255 49.3506 68.4165C49.7619 68.5316 50.058 68.91 50.058 69.3706V75.013C50.058 75.5558 49.6138 76 49.071 76H22.0762C21.5333 76 21.0892 75.5558 21.0892 75.013V69.3377C21.0892 68.8935 21.3853 68.5645 21.7965 68.4165C23.5567 67.7255 25.1195 66.8372 26.419 65.8173C27.2087 65.2087 27.8831 64.5506 28.4589 63.8926H8.58701C8.04416 63.8926 7.6 63.4485 7.6 62.9056V34.2164H0.987013C0.444156 34.2164 0 33.7723 0 33.2294V30.4823C0 27.0606 2.45108 24.1489 5.72468 23.4909C3.78355 21.4346 3.8329 18.2104 5.83983 16.2035C7.87965 14.1636 11.2026 14.1636 13.2424 16.2035C15.2494 18.2104 15.2987 21.4346 13.3576 23.4909C15.3645 23.9022 17.0753 25.1524 18.0952 26.8797H34.5948V21.2372ZM37.9836 10.6597H33.1965C30.3506 10.6597 28.0312 12.9792 28.0312 15.8251V17.5853H43.1654V15.8251C43.1489 12.9792 40.813 10.6597 37.9836 10.6597ZM39.3983 8.81732C42.6883 9.47532 45.1229 12.4035 45.1229 15.8087V18.5558C45.1229 19.0987 44.6788 19.5429 44.1359 19.5429H27.0277C26.4848 19.5429 26.0407 19.0987 26.0407 18.5558V15.8087C26.0407 12.387 28.4918 9.47532 31.7654 8.81732C29.8242 6.76104 29.8736 3.5368 31.8805 1.52987C33.9203 -0.509957 37.2433 -0.509957 39.2831 1.52987C41.29 3.5368 41.3394 6.76104 39.3983 8.81732ZM35.5818 1.97403C32.6866 1.97403 31.2225 5.49437 33.2788 7.5342C35.3186 9.57403 38.839 8.12641 38.839 5.23117C38.839 3.4381 37.3913 1.97403 35.5818 1.97403ZM64.0078 25.3333H59.2208C56.3584 25.3333 54.0554 27.6857 54.0554 30.4987V32.2589H69.1896V30.4987C69.1896 27.6528 66.8537 25.3333 64.0078 25.3333ZM63.9255 17.6017C61.8693 15.5619 58.3654 17.0095 58.3654 19.9048C58.3654 22.8 61.8857 24.2641 63.9255 22.2078C65.1922 20.9411 65.1922 18.8684 63.9255 17.6017ZM11.9429 25.3333H7.15584C4.30996 25.3333 1.99048 27.6528 1.99048 30.4987V32.2589H17.1247V30.4987C17.1082 27.6693 14.8052 25.3333 11.9429 25.3333ZM9.54112 16.6476C6.64589 16.6476 5.18182 20.168 7.23809 22.2078C9.27792 24.2476 12.7983 22.8 12.7983 19.9048C12.7983 18.1117 11.3506 16.6476 9.54112 16.6476ZM30.9264 63.8926C29.7749 65.6364 28.1134 67.1662 26.2216 68.3836H44.942C43.0502 67.1827 41.3723 65.6528 40.2208 63.8926H30.9264ZM23.0632 74.026H48.084V70.3576H23.0632V74.026Z" fill="#252B33"/>
</svg>
