<svg width="17" height="17" viewBox="0 0 17 17" fill="none" xmlns="http://www.w3.org/2000/svg">
<path d="M0.314325 8.45191C0.325584 3.88157 4.01426 0.216037 8.58961 0.228548C13.1474 0.241058 16.8486 3.95413 16.8114 8.47631C16.7736 13.0679 13.1046 16.7022 8.52331 16.6856C3.98017 16.669 0.303378 12.9813 0.314325 8.45191ZM13.2044 3.68078C13.0083 3.68078 12.8972 3.69485 12.7909 3.67828C12.4428 3.62386 12.2101 3.76741 11.9771 4.02732C11.1064 4.99843 10.2081 5.94515 9.32397 6.9047C9.25673 6.97757 9.22013 7.0789 9.15602 7.19024C9.0159 7.00791 8.94709 6.92033 8.88016 6.83151C8.14237 5.84757 7.40175 4.8652 6.67021 3.87657C6.56481 3.73426 6.45566 3.67484 6.27676 3.67703C5.44732 3.6861 4.61789 3.68078 3.78876 3.68172C3.7087 3.68172 3.62863 3.69173 3.4907 3.70111C4.8168 5.47132 6.11412 7.20307 7.42239 8.94983C6.10631 10.3698 4.80585 11.7725 3.4513 13.2337C3.63082 13.2337 3.73184 13.2212 3.8288 13.2359C4.19441 13.2922 4.44462 13.1492 4.69326 12.8721C5.6453 11.8109 6.6258 10.7757 7.59441 9.72922C7.66291 9.6551 7.72014 9.57065 7.79958 9.469C7.89779 9.59254 7.96222 9.6698 8.02258 9.74986C8.84451 10.8458 9.66863 11.9398 10.484 13.0404C10.5903 13.184 10.7014 13.239 10.8787 13.2371C11.7081 13.2284 12.5376 13.2337 13.3667 13.2327C13.4464 13.2327 13.5265 13.223 13.6626 13.2146C12.2589 11.3406 10.884 9.50529 9.50787 7.66814C10.7364 6.34298 11.9386 5.04597 13.2044 3.68078Z" fill="#252B33"/>
<path d="M13.2044 3.68078C11.9386 5.04597 10.7364 6.34267 9.50756 7.66814C10.8837 9.50528 12.2586 11.3406 13.6623 13.2146C13.5262 13.2234 13.4464 13.2327 13.3664 13.2327C12.5369 13.2337 11.7075 13.2287 10.8784 13.2371C10.701 13.239 10.59 13.1836 10.4837 13.0404C9.66801 11.9398 8.8442 10.8458 8.02227 9.74986C7.96222 9.66948 7.89779 9.59254 7.79927 9.469C7.71952 9.57065 7.6626 9.65509 7.5941 9.72922C6.62549 10.7754 5.64499 11.8109 4.69295 12.8721C4.44431 13.1492 4.1941 13.2919 3.82849 13.2359C3.73153 13.2209 3.63051 13.2337 3.45099 13.2337C4.80555 11.7725 6.106 10.3694 7.42209 8.94982C6.11413 7.20307 4.81649 5.47101 3.49071 3.70079C3.62864 3.69141 3.7087 3.68171 3.78877 3.6814C4.6182 3.68015 5.44764 3.68578 6.27676 3.67671C6.45566 3.67483 6.56482 3.73394 6.67022 3.87625C7.40207 4.86488 8.14237 5.84694 8.88017 6.83119C8.94679 6.92033 9.01559 7.00759 9.15602 7.18993C9.22014 7.0789 9.25642 6.97757 9.32397 6.90438C10.2078 5.94484 11.1061 4.99843 11.9771 4.027C12.2104 3.76678 12.4428 3.62354 12.7909 3.67796C12.8972 3.69485 13.0086 3.68078 13.2044 3.68078ZM4.83495 4.33601C4.86059 4.4095 4.86309 4.42952 4.87342 4.44359C6.87132 7.11205 8.86922 9.78051 10.8706 12.4462C10.9153 12.5059 11 12.5703 11.0679 12.5722C11.4736 12.5841 11.8798 12.5781 12.3252 12.5781C12.2786 12.4918 12.2595 12.4427 12.2289 12.4021C10.2529 9.76362 8.27654 7.12581 6.29647 4.49051C6.24611 4.42327 6.15604 4.3457 6.08192 4.3432C5.67627 4.3285 5.26968 4.33601 4.83495 4.33601Z" fill="white"/>
<path d="M4.83493 4.33594C5.26998 4.33594 5.67656 4.32844 6.08221 4.34282C6.15634 4.34532 6.24641 4.4232 6.29677 4.49013C8.27684 7.12544 10.2532 9.76356 12.2292 12.4017C12.2598 12.4423 12.2789 12.4918 12.3255 12.5778C11.8801 12.5778 11.4739 12.5837 11.0682 12.5718C11.0003 12.5699 10.9156 12.5055 10.8709 12.4458C8.86921 9.78013 6.8713 7.11168 4.87371 4.44322C4.86277 4.42946 4.86058 4.40913 4.83493 4.33594Z" fill="#252B33"/>
</svg>
