<svg width="18" height="15" viewBox="0 0 18 15" fill="none" xmlns="http://www.w3.org/2000/svg">
<path d="M1.35 14.7273C0.99 14.7273 0.675 14.5892 0.405 14.3131C0.135 14.0369 0 13.7148 0 13.3466V1.38068C0 1.0125 0.135 0.690341 0.405 0.414204C0.675 0.138068 0.99 0 1.35 0H16.65C17.01 0 17.325 0.138068 17.595 0.414204C17.865 0.690341 18 1.0125 18 1.38068V13.3466C18 13.7148 17.865 14.0369 17.595 14.3131C17.325 14.5892 17.01 14.7273 16.65 14.7273H1.35ZM9 7.77784L1.35 2.64631V13.3466H16.65V2.64631L9 7.77784ZM9 6.39716L16.56 1.38068H1.4625L9 6.39716ZM1.35 2.64631V1.38068V13.3466V2.64631Z" fill="#252B33"/>
</svg>
