<svg width="76" height="76" viewBox="0 0 76 76" fill="none" xmlns="http://www.w3.org/2000/svg">
<circle cx="38" cy="60" r="11" fill="#95C0FF"/>
<path d="M66.1936 53.9428V49.0323C66.1916 47.4073 65.5452 45.8495 64.3962 44.7005C63.2473 43.5515 61.6894 42.9052 60.0645 42.9032H49.7457C50.8803 40.8102 51.7955 38.6055 52.4768 36.3243L57.1348 32.5966C57.8589 32.0186 58.3882 31.2324 58.6513 30.3441C58.9145 29.4557 58.8988 28.5081 58.6064 27.629C58.3141 26.7498 57.759 25.9815 57.0163 25.4277C56.2735 24.874 55.3788 24.5613 54.4528 24.5321L57.1839 17.0228C57.8807 15.1064 58.1054 13.0502 57.8388 11.0285C57.5723 9.00687 56.8223 7.07923 55.6525 5.40896C54.4827 3.73869 52.9275 2.37501 51.1187 1.43344C49.3099 0.491874 47.3009 0.000174025 45.2617 1.29156e-06H34.8546C27.0674 -0.00194087 19.4367 2.18652 12.8342 6.31536C12.6358 6.43824 12.4766 6.61519 12.3754 6.82542C12.2741 7.03566 12.2349 7.27043 12.2625 7.50215C12.29 7.73387 12.3831 7.95291 12.5309 8.13354C12.6786 8.31416 12.8749 8.44886 13.0965 8.52181L16.0519 9.50245C16.4587 9.63815 16.8335 9.85552 17.1532 10.1412C17.473 10.4269 17.731 10.775 17.9114 11.164C18.0919 11.553 18.1909 11.9747 18.2025 12.4034C18.2141 12.832 18.138 13.2585 17.9789 13.6567C17.6852 14.3908 17.5503 15.1787 17.583 15.9687C17.6158 16.7587 17.8154 17.5328 18.1689 18.24L21.329 24.5541C20.425 24.6261 19.5635 24.9682 18.8564 25.5361C18.1493 26.104 17.6293 26.8713 17.3638 27.7385C17.0984 28.6057 17.0999 29.5327 17.3681 30.399C17.6362 31.2653 18.1587 32.031 18.8676 32.5966L23.5257 36.3243C24.2062 38.6054 25.1206 40.8101 26.2543 42.9032H15.9355C14.3106 42.9052 12.7527 43.5515 11.6038 44.7005C10.4548 45.8495 9.8084 47.4073 9.80645 49.0323V53.9428C6.90527 55.1548 4.42676 57.1968 2.68209 59.8125C0.937425 62.4282 0.00434724 65.501 0 68.6452V74.7742C0 75.0993 0.129147 75.4111 0.35903 75.641C0.588914 75.8708 0.900702 76 1.22581 76H74.7742C75.0993 76 75.4111 75.8708 75.641 75.641C75.8708 75.4111 76 75.0993 76 74.7742V68.6452C75.9957 65.501 75.0626 62.4282 73.3179 59.8125C71.5732 57.1968 69.0947 55.1548 66.1936 53.9428ZM47.8065 24.5161H40.4516C40.1265 24.5161 39.8147 24.6453 39.5848 24.8752C39.3549 25.105 39.2258 25.4168 39.2258 25.7419V26.9677H36.7742V25.7419C36.7742 25.4168 36.6451 25.105 36.4152 24.8752C36.1853 24.6453 35.8735 24.5161 35.5484 24.5161H24.5161V22.7203L32.1676 17.6197C33.8141 16.5198 35.7502 15.9336 37.7303 15.9355C40.5632 15.9322 43.3112 14.9681 45.5252 13.2007L47.5282 11.5986L49.6305 14.7538C50.8408 16.5649 51.4859 18.6947 51.4839 20.873V24.5161H47.8065ZM46.5806 26.9677V30.6452C46.5806 30.9703 46.4515 31.2821 46.2216 31.5119C45.9917 31.7418 45.6799 31.871 45.3548 31.871H42.9032C42.5781 31.871 42.2663 31.7418 42.0364 31.5119C41.8066 31.2821 41.6774 30.9703 41.6774 30.6452V26.9677H46.5806ZM34.3226 26.9677V30.6452C34.3226 30.9703 34.1934 31.2821 33.9636 31.5119C33.7337 31.7418 33.4219 31.871 33.0968 31.871H30.6452C30.3201 31.871 30.0083 31.7418 29.7784 31.5119C29.5485 31.2821 29.4194 30.9703 29.4194 30.6452V26.9677H34.3226ZM56.3871 29.0516C56.3877 29.3643 56.3177 29.6732 56.1823 29.955C56.0469 30.2369 55.8496 30.4845 55.605 30.6795L53.3826 32.4569C53.7066 30.6443 53.8849 28.8088 53.9159 26.9677H54.3032C54.8559 26.9677 55.3859 27.1873 55.7767 27.5781C56.1675 27.9689 56.3871 28.4989 56.3871 29.0516ZM20.254 14.5675C20.5372 13.8592 20.6727 13.1006 20.6523 12.3381C20.6318 11.5756 20.4557 10.8254 20.1349 10.1333C19.8141 9.44132 19.3553 8.82214 18.7866 8.31379C18.2179 7.80544 17.5514 7.41863 16.8279 7.1771L16.4528 7.05452C22.1153 4.0314 28.4356 2.45048 34.8546 2.45161H45.2617C46.9063 2.45192 48.5267 2.84854 49.9856 3.60789C51.4444 4.36724 52.6988 5.46696 53.6425 6.81392C54.5862 8.16088 55.1915 9.71541 55.407 11.3459C55.6225 12.9764 55.4419 14.6348 54.8806 16.1806L53.8154 19.1103C53.5491 17.0636 52.8151 15.1056 51.6702 13.3883L48.8263 9.12123C48.732 8.97989 48.6092 8.85973 48.466 8.76835C48.3227 8.67698 48.1619 8.6164 47.994 8.59045C47.8261 8.5651 47.6549 8.57454 47.4908 8.6182C47.3267 8.66185 47.1734 8.73877 47.0403 8.8442L43.9942 11.2872C42.2145 12.7063 40.0065 13.4806 37.7303 13.4839C35.2659 13.4816 32.8563 14.2112 30.807 15.58L22.61 21.0446C22.534 21.0962 22.4641 21.1563 22.4016 21.2236L20.3619 17.1429C20.1631 16.7456 20.0507 16.3106 20.0321 15.8667C20.0135 15.4229 20.0891 14.9801 20.254 14.5675ZM20.3962 30.6819C20.0579 30.4126 19.8117 30.0446 19.6919 29.6291C19.572 29.2136 19.5844 28.7711 19.7273 28.3629C19.8702 27.9548 20.1366 27.6012 20.4895 27.3512C20.8424 27.1012 21.2643 26.9672 21.6968 26.9677H22.0817C22.1125 28.8096 22.2908 30.646 22.6149 32.4594L20.3962 30.6819ZM24.5357 26.9677H26.9677V30.6452C26.9677 31.6205 27.3552 32.5558 28.0448 33.2455C28.7345 33.9351 29.6698 34.3226 30.6452 34.3226H33.0968C34.0721 34.3226 35.0075 33.9351 35.6971 33.2455C36.3868 32.5558 36.7742 31.6205 36.7742 30.6452V29.4194H39.2258V30.6452C39.2258 31.6205 39.6132 32.5558 40.3029 33.2455C40.9925 33.9351 41.9279 34.3226 42.9032 34.3226H45.3548C46.3302 34.3226 47.2655 33.9351 47.9552 33.2455C48.6448 32.5558 49.0323 31.6205 49.0323 30.6452V26.9677H51.4643C51.3691 32.5862 49.8005 38.0812 46.9153 42.9032H29.0847C26.1995 38.0812 24.6309 32.5862 24.5357 26.9677ZM15.9355 45.3548H60.0645C61.0398 45.3548 61.9752 45.7423 62.6648 46.4319C63.3545 47.1216 63.7419 48.0569 63.7419 49.0323V73.5484H12.2581V49.0323C12.2581 48.0569 12.6455 47.1216 13.3352 46.4319C14.0248 45.7423 14.9602 45.3548 15.9355 45.3548ZM2.45161 68.6452C2.45494 66.1614 3.14326 63.7266 4.44087 61.6087C5.73847 59.4908 7.59507 57.7718 9.80645 56.6408V73.5484H2.45161V68.6452ZM73.5484 73.5484H66.1936V56.6408C68.4048 57.7719 70.2614 59.4909 71.559 61.6088C72.8565 63.7267 73.5449 66.1614 73.5484 68.6452V73.5484Z" fill="#252B33"/>
<path d="M38.0002 69.8711C38.97 69.8711 39.918 69.5835 40.7243 69.0448C41.5306 68.506 42.1591 67.7402 42.5302 66.8443C42.9013 65.9483 42.9984 64.9624 42.8092 64.0113C42.62 63.0602 42.153 62.1865 41.4673 61.5008C40.7816 60.815 39.9079 60.3481 38.9568 60.1589C38.0056 59.9697 37.0198 60.0668 36.1238 60.4379C35.2279 60.809 34.4621 61.4375 33.9233 62.2438C33.3846 63.0501 33.097 63.9981 33.097 64.9679C33.097 66.2683 33.6136 67.5154 34.5331 68.435C35.4526 69.3545 36.6998 69.8711 38.0002 69.8711ZM38.0002 62.5163C38.4851 62.5163 38.9591 62.66 39.3623 62.9294C39.7654 63.1988 40.0796 63.5817 40.2652 64.0297C40.4508 64.4777 40.4993 64.9706 40.4047 65.4462C40.3101 65.9217 40.0766 66.3586 39.7338 66.7014C39.3909 67.0443 38.9541 67.2778 38.4785 67.3724C38.0029 67.467 37.51 67.4184 37.062 67.2329C36.614 67.0473 36.2312 66.7331 35.9618 66.3299C35.6924 65.9268 35.5486 65.4528 35.5486 64.9679C35.5486 64.3177 35.8069 63.6941 36.2667 63.2343C36.7264 62.7746 37.35 62.5163 38.0002 62.5163ZM29.7787 58.4797L31.512 56.7464L27.4754 52.7098L31.512 48.6732L29.7787 46.9399L24.8755 51.8432C24.6457 52.073 24.5166 52.3848 24.5166 52.7098C24.5166 53.0349 24.6457 53.3466 24.8755 53.5765L29.7787 58.4797ZM46.2217 58.4797L51.1249 53.5765C51.3547 53.3466 51.4838 53.0349 51.4838 52.7098C51.4838 52.3848 51.3547 52.073 51.1249 51.8432L46.2217 46.9399L44.4884 48.6732L48.525 52.7098L44.4884 56.7464L46.2217 58.4797ZM33.3421 56.8763L40.697 47.0711L42.6583 48.5421L35.3022 58.3485L33.3421 56.8763Z" fill="#252B33"/>
</svg>
