<svg width="69" height="69" viewBox="0 0 69 69" fill="none" xmlns="http://www.w3.org/2000/svg">
<circle cx="48" cy="23" r="11" fill="#EFDB74"/>
<path d="M1.00013 44.4719H67.933L67.9331 4.8151C67.9331 2.70803 66.2251 1 64.118 1H4.81523C2.70817 1 1.00013 2.70803 1.00013 4.8151V44.4719ZM1.00013 44.4719L1 51.1576C1 53.2647 2.70803 54.9727 4.8151 54.9727H64.1179C66.2249 54.9727 67.933 53.2647 67.9328 51.1577V44.4719H1.00013Z" stroke="black" stroke-width="2" stroke-miterlimit="10" stroke-linecap="round" stroke-linejoin="round"/>
<path d="M41.7144 63.4972V68.0001H27.2187V54.9723H41.7144V58.7489M22.3061 67.9792H46.627M32.4484 49.7218H36.485M34.244 30.7186C31.5716 35.0198 26.8041 37.8836 21.3678 37.8836C13.0017 37.8836 6.21973 31.1016 6.21973 22.7355C6.21973 19.3194 7.3505 16.1676 9.25805 13.6336M12.6041 10.3784C15.0779 8.62071 18.1022 7.5874 21.3678 7.5874C26.8754 7.5874 31.6965 10.5266 34.348 14.9222M26.9071 18.2207V27.2501" stroke="black" stroke-width="2" stroke-miterlimit="10" stroke-linecap="round" stroke-linejoin="round"/>
<path d="M15.8281 18.2208V24.4341C15.8281 25.4922 16.3529 26.2045 17.2447 26.7743C17.6789 27.0517 18.2275 27.2493 18.9091 27.2503C19.4994 27.2511 19.9927 27.1144 20.4006 26.9089C21.4397 26.3856 22.1023 25.591 22.1023 24.4275V18.2207" stroke="black" stroke-width="2" stroke-miterlimit="10" stroke-linecap="round" stroke-linejoin="round"/>
<path d="M47.5646 37.8836C55.9307 37.8836 62.7127 31.1016 62.7127 22.7355C62.7127 14.3694 55.9307 7.5874 47.5646 7.5874C39.1985 7.5874 32.4165 14.3694 32.4165 22.7355C32.4165 31.1016 39.1985 37.8836 47.5646 37.8836Z" stroke="black" stroke-width="2" stroke-miterlimit="10" stroke-linecap="round" stroke-linejoin="round"/>
<path d="M49.6832 18.2208L56.0353 27.2503M55.5883 18.2208L49.2273 27.2503M39.0952 18.2208V24.4341C39.0952 25.4922 39.62 26.2045 40.5118 26.7743C40.946 27.0517 41.4946 27.2493 42.1762 27.2503C42.7665 27.2511 43.2598 27.1144 43.6677 26.9089C44.7068 26.3856 45.3694 25.591 45.3694 24.4275V18.2207" stroke="black" stroke-width="2" stroke-miterlimit="10" stroke-linecap="round" stroke-linejoin="round"/>
</svg>
