<svg width="80" height="74" viewBox="0 0 80 74" fill="none" xmlns="http://www.w3.org/2000/svg">
<circle cx="36" cy="14" r="11" fill="#DFABFF"/>
<path d="M32.1958 14.6267H6.03664C5.74927 14.6267 5.47368 14.7409 5.27048 14.9441C5.06728 15.1473 4.95312 15.4229 4.95312 15.7102C4.95312 15.9976 5.06728 16.2732 5.27048 16.4764C5.47368 16.6796 5.74927 16.7938 6.03664 16.7938H32.1958C32.4831 16.7938 32.7587 16.6796 32.9619 16.4764C33.1651 16.2732 33.2793 15.9976 33.2793 15.7102C33.2793 15.4229 33.1651 15.1473 32.9619 14.9441C32.7587 14.7409 32.4831 14.6267 32.1958 14.6267ZM27.0104 21.3216C27.2977 21.3216 27.5733 21.2075 27.7765 21.0043C27.9797 20.8011 28.0939 20.5255 28.0939 20.2381C28.0939 19.9507 27.9797 19.6751 27.7765 19.4719C27.5733 19.2687 27.2977 19.1546 27.0104 19.1546H11.222C10.9347 19.1546 10.6591 19.2687 10.4559 19.4719C10.2527 19.6751 10.1385 19.9507 10.1385 20.2381C10.1385 20.5255 10.2527 20.8011 10.4559 21.0043C10.6591 21.2075 10.9347 21.3216 11.222 21.3216H27.0104ZM50.2285 33.5901C51.4742 33.5936 52.7081 33.35 53.859 32.8735C55.0099 32.3969 56.0548 31.6969 56.9333 30.8138V30.8107C58.484 29.2591 59.4487 27.2178 59.6631 25.0347C59.8776 22.8516 59.3284 20.6616 58.1093 18.8379C56.8902 17.0143 55.0765 15.6697 52.9771 15.0333C50.8778 14.3969 48.6228 14.508 46.5963 15.3478C44.5697 16.1876 42.897 17.704 41.8632 19.6387C40.8293 21.5735 40.4982 23.8068 40.9263 25.9583C41.3544 28.1097 42.5152 30.0462 44.2109 31.4378C45.9066 32.8294 48.0324 33.59 50.2261 33.5901H50.2285ZM57.5432 24.1084C57.5478 25.675 57.0454 27.2011 56.1111 28.4586L51.312 23.6626V16.8736C53.0439 17.1357 54.6247 18.0096 55.7678 19.3368C56.9109 20.664 57.5407 22.3568 57.5432 24.1084ZM49.145 16.8736V24.1084C49.1451 24.3959 49.2593 24.6716 49.4626 24.8749L54.5787 29.991C53.6853 30.6517 52.6531 31.1002 51.5604 31.3025C50.4678 31.5047 49.3434 31.4555 48.2727 31.1584C47.2019 30.8613 46.2129 30.3242 45.3807 29.5878C44.5485 28.8515 43.895 27.9352 43.4697 26.9086C43.0445 25.882 42.8587 24.772 42.9264 23.6629C42.9941 22.5537 43.3136 21.4746 43.8607 20.5074C44.4077 19.5401 45.1678 18.7102 46.0835 18.0806C46.9991 17.451 48.0461 17.0382 49.145 16.8736ZM32.1958 41.6025H31.4317V29.4517C31.4316 29.1644 31.3174 28.8889 31.1142 28.6857C30.911 28.4825 30.6355 28.3683 30.3482 28.3682H26.0142C25.7268 28.3682 25.4512 28.4823 25.248 28.6855C25.0448 28.8887 24.9306 29.1643 24.9306 29.4517V41.6025H22.3667V25.8916C22.3667 25.6042 22.2526 25.3286 22.0494 25.1254C21.8462 24.9222 21.5706 24.808 21.2832 24.808H16.9492C16.6618 24.808 16.3862 24.9222 16.183 25.1254C15.9798 25.3286 15.8657 25.6042 15.8657 25.8916V41.6025H13.3018V34.2191C13.3018 33.9318 13.1876 33.6562 12.9844 33.453C12.7812 33.2498 12.5056 33.1356 12.2182 33.1356H7.88419C7.59687 33.1358 7.32137 33.25 7.11821 33.4532C6.91504 33.6563 6.80084 33.9318 6.80067 34.2191V41.6025H6.03664C5.74927 41.6025 5.47368 41.7167 5.27048 41.9199C5.06728 42.1231 4.95312 42.3987 4.95312 42.686C4.95312 42.9734 5.06728 43.249 5.27048 43.4522C5.47368 43.6554 5.74927 43.7696 6.03664 43.7696H32.1958C32.4831 43.7696 32.7587 43.6554 32.9619 43.4522C33.1651 43.249 33.2793 42.9734 33.2793 42.686C33.2793 42.3987 33.1651 42.1231 32.9619 41.9199C32.7587 41.7167 32.4831 41.6025 32.1958 41.6025ZM8.9677 41.6025V35.3027H11.1347V41.6025H8.9677ZM18.0327 41.6025V26.9732H20.1997V41.6025H18.0327ZM27.0977 41.6025V30.5352H29.2647V41.6025H27.0977ZM55.5693 39.994C53.61 39.994 51.6947 40.575 50.0656 41.6635C48.4365 42.752 47.1668 44.2992 46.417 46.1094C45.6672 47.9195 45.471 49.9114 45.8533 51.833C46.2355 53.7547 47.179 55.5198 48.5644 56.9053C49.9499 58.2907 51.715 59.2342 53.6367 59.6165C55.5583 59.9987 57.5502 59.8025 59.3604 59.0527C61.1705 58.3029 62.7177 57.0332 63.8062 55.4041C64.8947 53.775 65.4757 51.8597 65.4757 49.9004C65.4726 47.274 64.4279 44.7561 62.5708 42.8989C60.7136 41.0418 58.1957 39.9971 55.5693 39.994ZM55.5693 57.6398C54.0386 57.6398 52.5423 57.1859 51.2696 56.3355C49.9968 55.485 49.0048 54.2763 48.4191 52.8621C47.8333 51.4479 47.68 49.8918 47.9787 48.3905C48.2773 46.8892 49.0144 45.5102 50.0968 44.4278C51.1791 43.3454 52.5582 42.6083 54.0595 42.3097C55.5607 42.0111 57.1169 42.1643 58.5311 42.7501C59.9453 43.3359 61.154 44.3279 62.0044 45.6006C62.8548 46.8733 63.3087 48.3697 63.3087 49.9004C63.3064 51.9523 62.4903 53.9195 61.0394 55.3704C59.5885 56.8213 57.6212 57.6375 55.5693 57.6398Z" fill="#252B33"/>
<path d="M77.8415 65.3867L72.323 59.8676C72.1197 59.6645 71.8442 59.5504 71.5568 59.5504C71.2695 59.5504 70.9939 59.6645 70.7906 59.8676L70.681 59.9772L68.2849 57.5817C69.4798 55.6089 70.1978 53.3846 70.3818 51.0856C70.5658 48.7865 70.2107 46.4763 69.3449 44.3386V4.79842C69.3434 3.52625 68.8374 2.30661 67.9379 1.40705C67.0383 0.507495 65.8187 0.00147479 64.5465 0H4.79842C3.52625 0.00147479 2.30661 0.507495 1.40705 1.40705C0.507495 2.30661 0.00147479 3.52625 0 4.79842V47.9836C0 48.2709 0.114156 48.5465 0.317354 48.7497C0.520552 48.9529 0.796148 49.0671 1.08351 49.0671H40.7346C40.7191 49.3432 40.7098 49.6206 40.7098 49.9005C40.7087 52.534 41.4078 55.1204 42.7355 57.3948C44.0631 59.6692 45.9716 61.5496 48.2653 62.8436C50.5591 64.1375 53.1556 64.7983 55.7888 64.7583C58.422 64.7183 60.9972 63.9789 63.2506 62.616L65.6461 65.0115L65.5371 65.1211C65.4364 65.2216 65.3565 65.3411 65.302 65.4725C65.2475 65.604 65.2195 65.7449 65.2195 65.8873C65.2195 66.0296 65.2475 66.1705 65.302 66.302C65.3565 66.4334 65.4364 66.5529 65.5371 66.6535L71.0556 72.1726C71.9571 73.0645 73.1751 73.5633 74.4433 73.56C75.7115 73.5566 76.9268 73.0513 77.8235 72.1546C78.7203 71.2578 79.2255 70.0425 79.2289 68.7743C79.2323 67.5061 78.7335 66.2882 77.8415 65.3867ZM2.16703 4.79842C2.16768 4.10073 2.44513 3.43181 2.93847 2.93847C3.43181 2.44513 4.10073 2.16768 4.79842 2.16703H64.5465C65.2442 2.16768 65.9131 2.44513 66.4064 2.93847C66.8998 3.43181 67.1772 4.10073 67.1779 4.79842V9.67361H2.16703V4.79842ZM2.16703 46.9007V11.8406H67.1779V40.6157C65.1354 38.0679 62.3113 36.2631 59.1412 35.4798C55.9711 34.6965 52.6313 34.9783 49.6373 36.2816H37.1491C36.8617 36.2816 36.5861 36.3958 36.3829 36.599C36.1797 36.8022 36.0655 37.0778 36.0655 37.3651C36.0655 37.6525 36.1797 37.9281 36.3829 38.1313C36.5861 38.3345 36.8617 38.4487 37.1491 38.4487H46.1125C43.5059 40.6086 41.7086 43.5886 41.0144 46.9019L2.16703 46.9007ZM42.8768 49.9011C42.8782 47.1838 43.7517 44.5387 45.3687 42.3548C46.9856 40.171 49.2608 38.5638 51.8594 37.7695C54.458 36.9752 57.243 37.0359 59.8045 37.9426C62.3661 38.8492 64.5691 40.5541 66.0894 42.8062L66.0944 42.8137C66.3117 43.1363 66.5135 43.4706 66.7018 43.813L66.7401 43.8811C67.6573 45.5812 68.1743 47.4681 68.2518 49.3983C68.3293 51.3284 67.9652 53.2508 67.1873 55.0189C66.4094 56.787 65.2382 58.3543 63.7629 59.6012C62.2876 60.8482 60.5471 61.742 58.6741 62.2145C56.8011 62.687 54.845 62.7257 52.9547 62.3278C51.0644 61.9299 49.29 61.1057 47.7664 59.9182C46.2429 58.7307 45.0105 57.211 44.1632 55.4751C43.3158 53.7392 42.8759 51.8328 42.8768 49.9011ZM67.1785 63.4803L65.0443 61.3455C65.7506 60.7405 66.4091 60.0818 67.0138 59.3753L69.1486 61.5102L67.1785 63.4803ZM76.3091 70.6402C75.8155 71.1336 75.1462 71.4108 74.4483 71.4108C73.7503 71.4108 73.081 71.1336 72.5874 70.6402L67.8348 65.8888L71.5565 62.1677L76.3091 66.9203C76.8012 67.4141 77.0775 68.0828 77.0775 68.7799C77.0775 69.4771 76.8012 70.1464 76.3091 70.6402Z" fill="#252B33"/>
</svg>
